<svg width="16" height="16" viewBox="0 0 16 16" fill="none" xmlns="http://www.w3.org/2000/svg">
<path d="M1.20206 2.15157L1.22615 2.13652L4.27043 0.636719L7.55624 5.01779L6.04452 7.03354C6.08976 7.79373 6.41213 8.51095 6.95062 9.04944C7.48911 9.58792 8.20634 9.91029 8.96653 9.95552L10.9823 8.4438L15.3633 11.7295L13.876 14.7484L13.8634 14.7739L13.8484 14.7979C13.769 14.9258 13.6582 15.0312 13.5266 15.1042C13.3949 15.1772 13.2468 15.2152 13.0963 15.2148H12.3107C10.7972 15.2148 9.29845 14.9166 7.90011 14.3374C6.50178 13.7582 5.23121 12.9092 4.16097 11.839C3.09073 10.7688 2.24177 9.49819 1.66257 8.09985C1.08336 6.70151 0.785245 5.20278 0.78525 3.68923V2.90366C0.784768 2.75315 0.822819 2.60502 0.895778 2.47337C0.968738 2.34172 1.07418 2.23094 1.20206 2.15157V2.15157ZM1.91025 3.68923C1.91025 9.42409 6.57591 14.0898 12.3107 14.0898H12.9464L13.9415 12.0696L10.982 9.84998L9.33437 11.0857H9.14688C8.02466 11.0844 6.94875 10.6381 6.15522 9.84453C5.36168 9.051 4.91533 7.9751 4.91407 6.85287V6.66538L6.14978 5.01775L3.93043 2.05847L1.91025 3.05378V3.68923Z" fill="#3F4E65"/>
</svg>
